<svg xmlns="http://www.w3.org/2000/svg" width="32" height="32" fill="none" viewBox="0 0 32 32">
  <path fill="#fff" fill-rule="evenodd" d="M14 12.604 4.134 17.21A1.96 1.96 0 0 0 3 19.033v4.017c0 1.593.96 3.007 2.411 3.654l8.875 3.935a4.25 4.25 0 0 0 3.428 0l8.872-3.934C28.052 26.056 29 24.639 29 23.05v-4.019a1.98 1.98 0 0 0-1.134-1.823L18 12.604v-.608a5.68 5.68 0 1 0-4 0v.608ZM26.182 25.79l-8.871 3.934a3.25 3.25 0 0 1-2.622 0l-8.87-3.933C4.712 25.297 4 24.231 4 23.05v-4.026a.998.998 0 0 1 .133-.524.947.947 0 0 1 .424-.384L15 13.241v-1.99a4.68 4.68 0 1 1 2 0v1.99l10.443 4.873a.98.98 0 0 1 .557.913v4.023c0 1.181-.703 2.247-1.818 2.74Z" clip-rule="evenodd"/>
  <path fill="#533566" fill-rule="evenodd" d="M11.029 18.753c.5-2.15 2.533-3.753 4.966-3.753 2.433 0 4.466 1.603 4.977 3.753.13.575-.2 1.16-.771 1.405a10.902 10.902 0 0 1-8.401 0c-.58-.245-.901-.83-.771-1.405ZM4 23.05V19c0 .356.186.712.557.886l10.534 4.916a2.18 2.18 0 0 0 1.818 0l10.534-4.916A.962.962 0 0 0 28 19v4.05c0 1.181-.703 2.247-1.818 2.74l-8.871 3.934a3.25 3.25 0 0 1-2.622 0l-8.87-3.933C4.712 25.297 4 24.231 4 23.05Z" clip-rule="evenodd"/>
  <path fill="#635994" d="m4.557 18.114 10.534-4.916a2.18 2.18 0 0 1 1.818 0l10.534 4.916c.743.347.743 1.425 0 1.771l-10.534 4.916a2.18 2.18 0 0 1-1.818 0L4.557 19.887c-.743-.346-.743-1.425 0-1.771v-.002Zm6.472.64c-.13.574.19 1.16.77 1.404a10.901 10.901 0 0 0 8.402 0c.57-.245.9-.83.77-1.405-.51-2.15-2.543-3.753-4.976-3.753s-4.465 1.604-4.966 3.754Z"/>
  <path fill="#6B438B" d="M4.133 18.5c.092.16.234.297.424.386l10.534 4.916a2.18 2.18 0 0 0 1.818 0l10.534-4.916a.946.946 0 0 0 .424-.386c.27.465.128 1.128-.424 1.386l-10.534 4.916a2.18 2.18 0 0 1-1.818 0L4.557 19.886c-.552-.258-.694-.92-.424-1.386Z"/>
  <path fill="#D3D3D3" d="M16 6a1 1 0 0 1 1 1v8.25c0 .552-.448.75-1 .75s-1-.198-1-.75V7a1 1 0 0 1 1-1Z"/>
  <path fill="#F8312F" d="M20.68 6.68a4.68 4.68 0 1 1-9.36 0 4.68 4.68 0 0 1 9.36 0ZM6.455 18.76c.14-.64.72-1.13 1.41-1.13s1.27.49 1.42 1.13c.04.17-.06.35-.22.42-.76.34-1.63.34-2.39 0a.366.366 0 0 1-.22-.42Z"/>
</svg>
